<svg xmlns="http://www.w3.org/2000/svg" viewBox="0 0 1200 720" font-family="-apple-system,BlinkMacSystemFont,'Segoe UI',Roboto,sans-serif" role="img" aria-label="EchoFox dashboard mockup">
  <title>EchoFox dashboard — Overview tab mockup</title>

  <!-- Background -->
  <rect width="1200" height="720" fill="#0f172a"/>

  <!-- Header -->
  <rect x="0" y="0" width="1200" height="56" fill="#1e293b"/>
  <text x="24" y="35" fill="#f97316" font-size="20" font-weight="700">🦊 EchoFox</text>
  <text x="160" y="35" fill="#94a3b8" font-size="13">v1.11.3 · uptime 6d 14h · WhatsApp: connected</text>
  <circle cx="1130" cy="28" r="6" fill="#10b981"/>
  <text x="1144" y="33" fill="#cbd5e1" font-size="13">healthy</text>

  <!-- Tab strip -->
  <rect x="0" y="56" width="1200" height="44" fill="#1e293b"/>
  <line x1="0" y1="100" x2="1200" y2="100" stroke="#334155" stroke-width="1"/>
  <!-- Active tab indicator -->
  <rect x="24" y="96" width="84" height="4" fill="#f97316"/>
  <text x="40"  y="83" fill="#f97316" font-size="13" font-weight="600">Overview</text>
  <text x="135" y="83" fill="#94a3b8" font-size="13">Groups</text>
  <text x="200" y="83" fill="#94a3b8" font-size="13">Contacts</text>
  <text x="275" y="83" fill="#94a3b8" font-size="13">Presence</text>
  <text x="350" y="83" fill="#94a3b8" font-size="13">Newsletters</text>
  <text x="445" y="83" fill="#94a3b8" font-size="13">Subscriptions</text>
  <text x="555" y="83" fill="#94a3b8" font-size="13">Labels</text>
  <text x="610" y="83" fill="#94a3b8" font-size="13">Blocklist</text>
  <text x="685" y="83" fill="#94a3b8" font-size="13">Metrics</text>
  <text x="755" y="83" fill="#94a3b8" font-size="13">Diagnostics</text>
  <text x="845" y="83" fill="#94a3b8" font-size="13">Alerts</text>
  <text x="905" y="83" fill="#94a3b8" font-size="13">AI</text>

  <!-- ─── Stat cards row ─────────────────────────────────────── -->
  <!-- Card 1: messages -->
  <rect x="24"  y="120" width="222" height="100" rx="8" fill="#1e293b" stroke="#334155"/>
  <text x="40" y="146" fill="#94a3b8" font-size="11" font-weight="600">MESSAGES PROCESSED</text>
  <text x="40" y="186" fill="#f8fafc" font-size="32" font-weight="700">182,947</text>
  <text x="40" y="208" fill="#10b981" font-size="12">↑ 12.4% this week</text>

  <!-- Card 2: commands -->
  <rect x="261" y="120" width="222" height="100" rx="8" fill="#1e293b" stroke="#334155"/>
  <text x="277" y="146" fill="#94a3b8" font-size="11" font-weight="600">COMMANDS RAN (24H)</text>
  <text x="277" y="186" fill="#f8fafc" font-size="32" font-weight="700">3,481</text>
  <text x="277" y="208" fill="#10b981" font-size="12">↑ 8.1% vs yesterday</text>

  <!-- Card 3: groups -->
  <rect x="498" y="120" width="222" height="100" rx="8" fill="#1e293b" stroke="#334155"/>
  <text x="514" y="146" fill="#94a3b8" font-size="11" font-weight="600">ACTIVE GROUPS</text>
  <text x="514" y="186" fill="#f8fafc" font-size="32" font-weight="700">47</text>
  <text x="514" y="208" fill="#cbd5e1" font-size="12">2,156 unique members</text>

  <!-- Card 4: AI cost -->
  <rect x="735" y="120" width="222" height="100" rx="8" fill="#1e293b" stroke="#334155"/>
  <text x="751" y="146" fill="#94a3b8" font-size="11" font-weight="600">AI COST TODAY</text>
  <text x="751" y="186" fill="#f8fafc" font-size="32" font-weight="700">$0.84</text>
  <text x="751" y="208" fill="#94a3b8" font-size="12">of $5.00 cap · 16.8%</text>
  <!-- progress bar -->
  <rect x="751" y="200" width="190" height="3" rx="1.5" fill="#334155"/>
  <rect x="751" y="200" width="32"  height="3" rx="1.5" fill="#f97316"/>

  <!-- Card 5: rate-limited -->
  <rect x="972" y="120" width="204" height="100" rx="8" fill="#1e293b" stroke="#334155"/>
  <text x="988" y="146" fill="#94a3b8" font-size="11" font-weight="600">RATE-LIMIT HITS</text>
  <text x="988" y="186" fill="#f8fafc" font-size="32" font-weight="700">17</text>
  <text x="988" y="208" fill="#94a3b8" font-size="12">all per-user (0 global)</text>

  <!-- ─── Charts row ─────────────────────────────────────────── -->
  <!-- Message trend (24h sparkline) -->
  <rect x="24"  y="240" width="710" height="240" rx="8" fill="#1e293b" stroke="#334155"/>
  <text x="40" y="268" fill="#f8fafc" font-size="14" font-weight="600">Message volume — last 24 hours</text>
  <text x="40" y="286" fill="#94a3b8" font-size="11">5-minute buckets · peak 412 msgs at 19:30</text>
  <!-- chart grid -->
  <line x1="55"  y1="320" x2="55"  y2="455" stroke="#334155" stroke-width="1"/>
  <line x1="55"  y1="455" x2="720" y2="455" stroke="#334155" stroke-width="1"/>
  <line x1="55"  y1="410" x2="720" y2="410" stroke="#334155" stroke-width="1" stroke-dasharray="2,3" opacity="0.4"/>
  <line x1="55"  y1="365" x2="720" y2="365" stroke="#334155" stroke-width="1" stroke-dasharray="2,3" opacity="0.4"/>
  <line x1="55"  y1="320" x2="720" y2="320" stroke="#334155" stroke-width="1" stroke-dasharray="2,3" opacity="0.4"/>
  <text x="38" y="324" fill="#64748b" font-size="9" text-anchor="end">400</text>
  <text x="38" y="369" fill="#64748b" font-size="9" text-anchor="end">300</text>
  <text x="38" y="414" fill="#64748b" font-size="9" text-anchor="end">200</text>
  <text x="38" y="459" fill="#64748b" font-size="9" text-anchor="end">100</text>
  <text x="60"  y="472" fill="#64748b" font-size="9">00:00</text>
  <text x="180" y="472" fill="#64748b" font-size="9">04:00</text>
  <text x="300" y="472" fill="#64748b" font-size="9">08:00</text>
  <text x="420" y="472" fill="#64748b" font-size="9">12:00</text>
  <text x="540" y="472" fill="#64748b" font-size="9">16:00</text>
  <text x="660" y="472" fill="#64748b" font-size="9">20:00</text>

  <!-- Sparkline path: realistic-looking variation -->
  <path d="M 55,440 L 75,438 L 95,442 L 115,445 L 135,443 L 155,440 L 175,438 L 195,432
           L 215,425 L 235,418 L 255,410 L 275,402 L 295,395 L 315,388 L 335,380 L 355,372
           L 375,365 L 395,360 L 415,358 L 435,355 L 455,350 L 475,345 L 495,340 L 515,335
           L 535,328 L 555,325 L 575,322 L 595,320 L 615,328 L 635,335 L 655,344 L 675,352
           L 695,362 L 720,370"
        fill="none" stroke="#f97316" stroke-width="2"/>
  <!-- Area fill under sparkline -->
  <path d="M 55,440 L 75,438 L 95,442 L 115,445 L 135,443 L 155,440 L 175,438 L 195,432
           L 215,425 L 235,418 L 255,410 L 275,402 L 295,395 L 315,388 L 335,380 L 355,372
           L 375,365 L 395,360 L 415,358 L 435,355 L 455,350 L 475,345 L 495,340 L 515,335
           L 535,328 L 555,325 L 575,322 L 595,320 L 615,328 L 635,335 L 655,344 L 675,352
           L 695,362 L 720,370 L 720,455 L 55,455 Z"
        fill="#f97316" opacity="0.10"/>
  <!-- Peak marker -->
  <circle cx="595" cy="320" r="4" fill="#f97316"/>
  <circle cx="595" cy="320" r="8" fill="#f97316" opacity="0.3"/>

  <!-- Top commands chart (right side) -->
  <rect x="746" y="240" width="430" height="240" rx="8" fill="#1e293b" stroke="#334155"/>
  <text x="762" y="268" fill="#f8fafc" font-size="14" font-weight="600">Top commands (24h)</text>
  <text x="762" y="286" fill="#94a3b8" font-size="11">by invocation count</text>
  <!-- Horizontal bar chart -->
  <text x="762" y="320" fill="#cbd5e1" font-size="12">.ai</text>
  <rect x="820" y="310" width="290" height="14" rx="2" fill="#f97316"/>
  <text x="1120" y="320" fill="#94a3b8" font-size="11" text-anchor="end">842</text>
  <text x="762" y="346" fill="#cbd5e1" font-size="12">.menu</text>
  <rect x="820" y="336" width="220" height="14" rx="2" fill="#f97316" opacity="0.85"/>
  <text x="1120" y="346" fill="#94a3b8" font-size="11" text-anchor="end">631</text>
  <text x="762" y="372" fill="#cbd5e1" font-size="12">.weather</text>
  <rect x="820" y="362" width="180" height="14" rx="2" fill="#f97316" opacity="0.7"/>
  <text x="1120" y="372" fill="#94a3b8" font-size="11" text-anchor="end">517</text>
  <text x="762" y="398" fill="#cbd5e1" font-size="12">.summarize</text>
  <rect x="820" y="388" width="155" height="14" rx="2" fill="#f97316" opacity="0.55"/>
  <text x="1120" y="398" fill="#94a3b8" font-size="11" text-anchor="end">449</text>
  <text x="762" y="424" fill="#cbd5e1" font-size="12">.translate</text>
  <rect x="820" y="414" width="120" height="14" rx="2" fill="#f97316" opacity="0.45"/>
  <text x="1120" y="424" fill="#94a3b8" font-size="11" text-anchor="end">348</text>
  <text x="762" y="450" fill="#cbd5e1" font-size="12">.remindme</text>
  <rect x="820" y="440" width="95"  height="14" rx="2" fill="#f97316" opacity="0.35"/>
  <text x="1120" y="450" fill="#94a3b8" font-size="11" text-anchor="end">274</text>

  <!-- ─── Recent activity feed ───────────────────────────────── -->
  <rect x="24" y="500" width="710" height="200" rx="8" fill="#1e293b" stroke="#334155"/>
  <text x="40" y="528" fill="#f8fafc" font-size="14" font-weight="600">Recent activity</text>

  <circle cx="50"  cy="555" r="4" fill="#10b981"/>
  <text x="64"  y="559" fill="#cbd5e1" font-size="12">19:42:11</text>
  <text x="142" y="559" fill="#94a3b8" font-size="12">cmd</text>
  <text x="186" y="559" fill="#f8fafc" font-size="12" font-weight="600">.weather Mumbai</text>
  <text x="350" y="559" fill="#94a3b8" font-size="12">→ 91XXX (private)</text>
  <text x="700" y="559" fill="#10b981" font-size="12" text-anchor="end">218ms</text>

  <circle cx="50"  cy="578" r="4" fill="#10b981"/>
  <text x="64"  y="582" fill="#cbd5e1" font-size="12">19:42:08</text>
  <text x="142" y="582" fill="#94a3b8" font-size="12">cmd</text>
  <text x="186" y="582" fill="#f8fafc" font-size="12" font-weight="600">.ai on</text>
  <text x="350" y="582" fill="#94a3b8" font-size="12">→ DevOps-Brew (group)</text>
  <text x="700" y="582" fill="#10b981" font-size="12" text-anchor="end">42ms</text>

  <circle cx="50"  cy="601" r="4" fill="#f97316"/>
  <text x="64"  y="605" fill="#cbd5e1" font-size="12">19:41:55</text>
  <text x="142" y="605" fill="#94a3b8" font-size="12">ai</text>
  <text x="186" y="605" fill="#f8fafc" font-size="12" font-weight="600">openai/gpt-4o-mini</text>
  <text x="350" y="605" fill="#94a3b8" font-size="12">847 tok · $0.0023</text>
  <text x="700" y="605" fill="#10b981" font-size="12" text-anchor="end">1.4s</text>

  <circle cx="50"  cy="624" r="4" fill="#10b981"/>
  <text x="64"  y="628" fill="#cbd5e1" font-size="12">19:41:32</text>
  <text x="142" y="628" fill="#94a3b8" font-size="12">cmd</text>
  <text x="186" y="628" fill="#f8fafc" font-size="12" font-weight="600">.remindme 15m standup</text>
  <text x="350" y="628" fill="#94a3b8" font-size="12">→ 91XXX (private)</text>
  <text x="700" y="628" fill="#10b981" font-size="12" text-anchor="end">71ms</text>

  <circle cx="50"  cy="647" r="4" fill="#94a3b8"/>
  <text x="64"  y="651" fill="#cbd5e1" font-size="12">19:41:18</text>
  <text x="142" y="651" fill="#94a3b8" font-size="12">sub</text>
  <text x="186" y="651" fill="#f8fafc" font-size="12" font-weight="600">RSS thehackersnews</text>
  <text x="350" y="651" fill="#94a3b8" font-size="12">3 new articles dispatched</text>
  <text x="700" y="651" fill="#94a3b8" font-size="12" text-anchor="end">—</text>

  <circle cx="50"  cy="670" r="4" fill="#10b981"/>
  <text x="64"  y="674" fill="#cbd5e1" font-size="12">19:41:02</text>
  <text x="142" y="674" fill="#94a3b8" font-size="12">cmd</text>
  <text x="186" y="674" fill="#f8fafc" font-size="12" font-weight="600">.poll &quot;lunch?&quot; pizza sushi</text>
  <text x="350" y="674" fill="#94a3b8" font-size="12">→ DevOps-Brew (group)</text>
  <text x="700" y="674" fill="#10b981" font-size="12" text-anchor="end">156ms</text>

  <!-- ─── Side panel: Alerts ─────────────────────────────────── -->
  <rect x="746" y="500" width="430" height="200" rx="8" fill="#1e293b" stroke="#334155"/>
  <text x="762" y="528" fill="#f8fafc" font-size="14" font-weight="600">Active alerts</text>
  <text x="1160" y="528" fill="#10b981" font-size="11" text-anchor="end">2 rules · 0 firing</text>

  <!-- Alert 1 — green -->
  <rect x="762" y="544" width="398" height="62" rx="6" fill="#0f172a" stroke="#334155"/>
  <circle cx="780" cy="565" r="5" fill="#10b981"/>
  <text x="796" y="569" fill="#f8fafc" font-size="13" font-weight="600">AI cost &lt; 80% of cap</text>
  <text x="796" y="589" fill="#94a3b8" font-size="11">window 60m · 16.8% utilisation · last fired: never</text>

  <!-- Alert 2 — green -->
  <rect x="762" y="614" width="398" height="62" rx="6" fill="#0f172a" stroke="#334155"/>
  <circle cx="780" cy="635" r="5" fill="#10b981"/>
  <text x="796" y="639" fill="#f8fafc" font-size="13" font-weight="600">Telegram failure rate &lt; 20%</text>
  <text x="796" y="659" fill="#94a3b8" font-size="11">window 60m · 0% · 42 successful sends</text>
</svg>
